<svg xmlns="http://www.w3.org/2000/svg" version="1.1" xmlns:xlink="http://www.w3.org/1999/xlink" xmlns:svgjs="http://svgjs.dev/svgjs" width="1000" height="1000" viewBox="0 0 1000 1000"><rect width="1000" height="1000" fill="#000000"></rect><g transform="matrix(0.7,0,0,0.7,149.57605563665675,421.6602847208929)"><svg viewBox="0 0 396 89" data-background-color="#77d4fc" preserveAspectRatio="xMidYMid meet" height="224" width="1000" xmlns="http://www.w3.org/2000/svg" xmlns:xlink="http://www.w3.org/1999/xlink"><g id="tight-bounds" transform="matrix(1,0,0,1,0.24008861730862918,-0.034147547020154434)"><svg viewBox="0 0 395.52 89.068365277629" height="89.068365277629" width="395.52"><g><svg viewBox="0 0 395.52 89.068365277629" height="89.068365277629" width="395.52"><g><svg viewBox="0 0 395.52 89.068365277629" height="89.068365277629" width="395.52"><g id="textblocktransform"><svg viewBox="0 0 395.52 89.068365277629" height="89.068365277629" width="395.52" id="textblock"><g><svg viewBox="0 0 395.52 89.068365277629" height="89.068365277629" width="395.52"><path d="M394.594 19.103C392.735 9.858 387.435 7.288 387.435 7.288 371.165-2.235 350.86-0.182 332.619 1.186 300.414 1.242 268.339 3.276 236.208 4.367 168.767 4.533 100.749 1.796 33.643 8.545 27.339 10.616-6.54 8.952 1.121 20.287 3.129 25.002 10.456 30.235 10.232 34.562 11.236 35.32 12.631 33.582 13.226 34.672 15.309 37.612 18.711 36.226 21.501 37.964 17.614 42.605 20.403 46.469 23.062 50.519 18.377 51.573 12.371 51.074 9.675 54.568 9.396 57.102 7.89 56.621 6.235 56.51 5.026 56.436 2.59 56.713 2.999 57.508 4.394 60.226-1.594 61.798 2.162 64.461-0.422 67.345 3.948 69.841 3.353 72.966 3.278 73.595 3.687 74.131 4.338 74.279 7.22 75.074 3.018 76.628 3.464 78.31 33.029 89.811 65.104 81.86 95.394 87.149 103.259 83.451 97.346 88.461 100.489 87.685 102.943 86.779 104.728 90.532 107.499 88.406 107.927 87.796 107.276 86.354 108.8 86.631 109.6 86.779 110.307 86.742 110.418 85.891 110.586 84.615 109.117 85.411 108.726 84.745 112.947 81.38 111.906 89.386 115.866 89.053 115.68 88.073 114.528 86.668 116.889 86.853 119.232 85.447 119.306 84.283 121.389 87.444 121.463 88.129 121.835 88.609 122.43 88.942 128.938 85.503 135.409 90.163 142.233 88.609 146.417 86.908 150.433 89.534 154.672 88.887 156.16 88.369 157.666 87.444 159.098 88.998 176.632 89.33 195.319 87.944 211.943 89.053 256.364 86.982 303.835 89.904 350.674 87.167 361.719 86.113 373.192 84.615 383.958 83.414 383.958 83.414 392.679 80.122 392.679 65.33S394.538 52.386 394.817 40.608C395.096 28.829 396.398 28.349 394.538 19.103Z" opacity="1" fill="#ffffff" data-fill-palette-color="tertiary"></path><g transform="matrix(1,0,0,1,55.76832,26.230666666666668)"><svg width="283.98335999999995" viewBox="5 -35.25 280.0299987792969 36.099998474121094" height="36.607031944295656" data-palette-color="#77d4fc"><path d="M22.4-17.9Q24.85-16.4 26.25-14.2 27.65-12 27.65-9.25L27.65-9.25Q27.65-6.15 25.93-3.7 24.2-1.25 20.95-0.2L20.95-0.2Q18.8 0.5 15.1 0.5L15.1 0.5Q9.8 0.5 7.6 0.25L7.6 0.25 5-0.05 5-34.75 16-34.75Q18.3-34.75 20.1-34.1L20.1-34.1Q22.95-33.1 24.53-30.9 26.1-28.7 26.1-25.7L26.1-25.7Q26.1-23.4 25.18-21.65 24.25-19.9 22.3-18.95L22.3-18.95Q21.8-18.7 20.8-18.4L20.8-18.4Q22.05-18.1 22.4-17.9L22.4-17.9ZM16.7-31.95L8-31.95 8-19.5 15.95-19.5Q19.15-19.5 21.13-21.15 23.1-22.8 23.1-25.9L23.1-25.9Q23.1-28.65 21.43-30.18 19.75-31.7 16.7-31.95L16.7-31.95ZM15.6-2.25Q19.85-2.25 22.25-4.05 24.65-5.85 24.65-9.25L24.65-9.25Q24.65-12.55 22.45-14.65 20.25-16.75 16.3-16.75L16.3-16.75 8-16.75 8-2.5 12.25-2.35 15.6-2.25ZM40.65-14.85L31.8-31Q31.35-31.85 30.1-31.85L30.1-31.85 30.1-34.7Q31.6-34.7 32.6-34.13 33.6-33.55 34.3-32.3L34.3-32.3 42.1-18.1 51.05-34.25 54.45-34.25 43.6-14.95 43.7 0 40.65 0 40.65-14.85ZM69.34 0L69.34-31.4 57.65-31.4 57.65-34.2 84.05-34.2 84.05-31.4 72.34-31.4 72.34 0 69.34 0ZM90.64 0L90.64-34.2 112.59-34.2 112.59-31.4 93.64-31.4 93.64-19.5 107.59-19.5 107.59-16.7 93.64-16.7 93.64-2.8 113.59-2.8 113.59 0 90.64 0ZM149.29 0.85Q144.49 0.85 140.64-1.55 136.79-3.95 134.59-8 132.39-12.05 132.39-16.8L132.39-16.8Q132.39-21.65 134.69-25.9 136.99-30.15 140.94-32.7 144.89-35.25 149.49-35.25L149.49-35.25Q153.69-35.25 157.36-33.35 161.04-31.45 161.24-26.55L161.24-26.55 158.24-26.55Q158.09-29.85 155.21-31.05 152.34-32.25 149.24-32.25L149.24-32.25Q145.49-32.25 142.29-30.03 139.09-27.8 137.24-24.2 135.39-20.6 135.39-16.65L135.39-16.65Q135.39-12.85 137.19-9.53 138.99-6.2 142.16-4.2 145.34-2.2 149.34-2.2L149.34-2.2Q152.99-2.2 156.11-3.85 159.24-5.5 161.04-8.3L161.04-8.3 163.49-6.6Q161.14-3.05 157.34-1.1 153.54 0.85 149.29 0.85L149.29 0.85ZM193.64-2.8L194.89-0.35Q193.89 0.35 192.69 0.35L192.69 0.35Q191.24 0.35 190.39-0.23 189.54-0.8 188.94-1.6L188.94-1.6 182.99-9.65Q181.24-12 179.91-12.83 178.59-13.65 176.29-13.8L176.29-13.8 176.29-16.6 180.64-16.6Q183.89-16.6 185.84-18.55 187.79-20.5 187.79-23.85L187.79-23.85Q187.79-27.15 185.94-29.28 184.09-31.4 181.19-31.4L181.19-31.4 173.19-31.4 173.19 0 170.19 0 170.19-34.2 181.39-34.2Q184.09-34.2 186.21-32.88 188.34-31.55 189.56-29.25 190.79-26.95 190.79-24.15L190.79-24.15Q190.79-21.5 189.74-19.45 188.69-17.4 187.24-16.2 185.79-15 184.54-14.75L184.54-14.75Q183.69-14.6 182.56-14.63 181.44-14.65 181.39-14.65L181.39-14.65Q182.99-14.3 184.14-12.8L184.14-12.8 186.14-10.05Q187.04-8.85 188.86-6.35 190.69-3.85 191.24-3.25L191.24-3.25Q191.59-2.85 191.86-2.68 192.14-2.5 192.64-2.5L192.64-2.5Q193.29-2.5 193.64-2.8L193.64-2.8ZM196.53 0L211.13-35.15 212.08-35.15 226.78 0 223.58 0 218.73-11.35 204.48-11.35 199.73 0 196.53 0ZM217.53-14.15L212.83-25.85Q212.03-27.85 211.58-29.75L211.58-29.75Q210.98-27.4 210.38-25.85L210.38-25.85 205.68-14.15 217.53-14.15ZM233.38 0L233.38-34.2 255.28-34.2 255.28-31.35 236.43-31.35 236.43-19.1 250.78-19.1 250.78-16.25 236.43-16.25 236.43 0 233.38 0ZM270.33 0L270.33-31.4 258.63-31.4 258.63-34.2 285.03-34.2 285.03-31.4 273.33-31.4 273.33 0 270.33 0Z" opacity="1" transform="matrix(1,0,0,1,0,0)" fill="#000000" class="wordmark-text-0" data-fill-palette-color="quaternary" id="text-0"></path></svg></g></svg></g></svg></g></svg></g><g></g></svg></g><defs></defs></svg><rect width="395.52" height="89.068365277629" fill="none" stroke="none" visibility="hidden"></rect></g></svg></g></svg>