<svg xmlns="http://www.w3.org/2000/svg" version="1.1" xmlns:xlink="http://www.w3.org/1999/xlink" xmlns:svgjs="http://svgjs.dev/svgjs" width="1000" height="1000" viewBox="0 0 1000 1000"><rect width="1000" height="1000" fill="#000000"></rect><g transform="matrix(0.7,0,0,0.7,149.57575757575756,427.2527248760145)"><svg viewBox="0 0 396 82" data-background-color="#046380" preserveAspectRatio="xMidYMid meet" height="207" width="1000" xmlns="http://www.w3.org/2000/svg" xmlns:xlink="http://www.w3.org/1999/xlink"><g id="tight-bounds" transform="matrix(1,0,0,1,0.2400000000000091,0.16823022889451522)"><svg viewBox="0 0 395.52 81.66353954221096" height="81.66353954221096" width="395.52"><g><svg viewBox="0 0 524.9167178101079 108.38025167185816" height="81.66353954221096" width="395.52"><g transform="matrix(1,0,0,1,129.39671781010784,31.934087379828416)"><svg viewBox="0 0 395.52000000000004 44.51207691220133" height="44.51207691220133" width="395.52000000000004"><g id="textblocktransform"><svg viewBox="0 0 395.52000000000004 44.51207691220133" height="44.51207691220133" width="395.52000000000004" id="textblock"><g><svg viewBox="0 0 395.52000000000004 44.51207691220133" height="44.51207691220133" width="395.52000000000004"><g transform="matrix(1,0,0,1,0,0)"><svg width="395.52000000000004" viewBox="2.9000000953674316 -35.04999923706055 353.6300048828125 39.79999923706055" height="44.51207691220133" data-palette-color="#ffffff"><path d="M14.7 1.2Q11.15 1.2 9.03 1.03 6.9 0.85 5.65 0.4L5.65 0.4Q4.35-0.15 3.75-1.1 3.15-2.05 3.15-3.65L3.15-3.65 3.15-4.9Q3.2-5.4 3.2-6.4L3.2-6.4Q3.25-6.9 3.25-7.9L3.25-7.9Q3.3-8.4 3.3-8.95L3.3-8.95Q3.3-10.85 3.2-14.65L3.2-14.65 3.15-17.65Q2.9-21.2 2.9-26.25L2.9-26.25 2.9-27.95 2.9-29.5Q2.9-31.25 3.05-32.05L3.05-32.05Q3.15-32.3 3.18-32.5 3.2-32.7 3.2-32.8L3.2-32.8Q3.25-33.7 3.95-34.15L3.95-34.15Q4.35-34.3 5.05-34.3L5.05-34.3Q5.5-34.3 6.03-34.35 6.55-34.4 7.15-34.4L7.15-34.4Q7.95-34.4 9.65-34.5L9.65-34.5Q10.1-34.55 10.73-34.6 11.35-34.65 12.15-34.65L12.15-34.65Q13.75-34.75 14.4-34.75L14.4-34.75Q18.5-34.75 24-33.95L24-33.95Q27.85-33.5 30-33L30-33Q33.65-32.1 35.55-30.65L35.55-30.65Q38-28.55 38-25.3L38-25.3Q38-21.1 34.55-18.95L34.55-18.95Q34.3-18.8 34.1-18.73 33.9-18.65 33.7-18.55L33.7-18.55Q32.8-18.3 32.15-17.9L32.15-17.9Q32.05-17.85 31.9-17.73 31.75-17.6 31.65-17.4L31.65-17.4Q31.65-17.4 31.68-17.38 31.7-17.35 31.7-17.3L31.7-17.3Q31.7-17.3 31.8-17.2L31.8-17.2Q35.25-15.8 37.4-13.75L37.4-13.75Q39-11.95 39-10L39-10Q39-7.25 35.65-4.45L35.65-4.45Q32.35-1.85 27.5-0.5L27.5-0.5Q23.9 0.5 20.4 0.9L20.4 0.9Q17.75 1.2 14.7 1.2L14.7 1.2ZM20.65-22.15Q20.9-22.15 21.2-22.3L21.2-22.3Q22.5-22.75 23.65-23.4L23.65-23.4Q24.35-23.7 25.03-24.03 25.7-24.35 25.95-24.45L25.95-24.45 26.4-24.65 26.8-24.75Q27-24.75 27-25L27-25Q27-25.85 25.15-26.15L25.15-26.15Q24.05-26.4 22.4-26.4L22.4-26.4Q20.9-26.4 20.5-25.25L20.5-25.25Q20.25-24.65 20.25-23.75 20.25-22.85 20.25-22.65L20.25-22.65 20.25-22.4Q20.25-22.15 20.65-22.15L20.65-22.15ZM19.8-7.7L19.9-7.7Q19.9-7.7 19.93-7.7 19.95-7.7 19.95-7.75L19.95-7.75Q23.45-9.45 27.9-11.45L27.9-11.45Q28.1-11.65 28.15-11.65L28.15-11.65 28.4-11.8Q26.3-12.45 24.25-12.65L24.25-12.65Q21.65-12.75 19.95-12.75L19.95-12.75Q19.4-12.75 19.4-12.05L19.4-12.05 19.4-8.05Q19.4-7.7 19.8-7.7L19.8-7.7ZM63.9 4.75L63.9 4.45Q63.9 4.45 63.82 4.45 63.75 4.45 63.7 4.5L63.7 4.5 63.55 4.55Q63.4 4.55 63.4 4.45L63.4 4.45Q63.2 4.35 63.15 4.15L63.15 4.15Q61.4 3.85 60.9 3.65L60.9 3.65 59.15 3.15 58.9 3.15Q58.65 3.15 58.5 3.05L58.5 3.05Q58.05 3.05 57.75 2.95L57.75 2.95Q57.35 2.9 56.45 2.6 55.55 2.3 55.15 2.15L55.15 2.15Q54.35 1.9 52.85 1.3L52.85 1.3Q52.15 1 51.8 0.9L51.8 0.9 50.65 0.2Q50.25-0.1 50.25-0.4L50.25-0.4Q50.25-1.35 50.7-2.4L50.7-2.4Q50.85-2.75 51.12-3.25 51.4-3.75 51.65-4.4L51.65-4.4Q51.75-4.7 52.2-5.3L52.2-5.3Q53.4-7.3 53.5-7.5L53.5-7.5Q53.7-8.05 53.7-8.5L53.7-8.5Q53.7-9.25 52.9-10.05L52.9-10.05Q52.15-10.8 52.15-11.5L52.15-11.5Q51.9-11.5 51.9-11.45L51.9-11.45 51.8-11.45 51.75-11.45Q51.65-11.55 51.65-11.65L51.65-11.65Q50.05-13.65 48.4-16.5L48.4-16.5Q46.3-19.8 45-22.5L45-22.5Q44.6-23.1 44.05-24.65L44.05-24.65Q43.4-26 42.95-27.4L42.95-27.4Q42.4-28.95 42.4-29.4L42.4-29.4Q42.4-29.9 43.5-30.7L43.5-30.7Q43.95-31 44.55-31.3 45.15-31.6 45.45-31.75L45.45-31.75Q45.7-31.8 47.55-32.3L47.55-32.3 48.25-32.55Q48.45-32.7 48.7-32.7L48.7-32.7Q49-32.7 49.65-32.9L49.65-32.9Q51.1-33.2 51.35-33.3L51.35-33.3 53.15-33.7Q54.65-34.2 54.9-34.25L54.9-34.25 55-34.3 55.15-34.3 55.25-34.3Q56.3-34.3 56.65-33.8L56.65-33.8Q56.95-33.5 57.65-32.4L57.65-32.4Q57.75-32.1 58.02-31.7 58.3-31.3 58.4-31.2L58.4-31.2 58.8-30.65 59.15-30.25Q59.35-30 59.55-29.65 59.75-29.3 60-28.9L60-28.9Q61.3-26.6 62-25.65L62-25.65Q62.45-25 62.75-25L62.75-25Q62.9-25 63.25-25.55L63.25-25.55Q63.7-26.25 64.9-28.75L64.9-28.75Q65.55-30.35 66.45-32.4L66.45-32.4Q66.9-33.3 66.95-33.5L66.95-33.5Q67.15-34.4 67.4-34.65L67.4-34.65Q67.65-35.05 68.3-35.05L68.3-35.05Q69.9-35.05 72.5-34.4L72.5-34.4Q75.05-33.65 77.4-32.45L77.4-32.45Q79.8-31.15 80.65-30.05L80.65-30.05Q80.65-28.7 80-27.55L80-27.55 75.4-17.4 70.9-7.2 70.7-7.15Q70.65-7.15 70.55-7.05L70.55-7.05Q67.25-0.6 64.5 4.55L64.5 4.55Q64.4 4.75 63.9 4.75L63.9 4.75ZM93 0.05Q92.3 0.05 91.95-0.9L91.95-0.9Q91.2-2.55 91.2-6.9L91.2-6.9Q91.2-11.1 91.35-16.55L91.35-16.55Q91.4-18.3 91.4-21.95L91.4-21.95 91.25-22.15 85.7-22.15Q85.05-22.15 84.67-22.88 84.3-23.6 84.1-24.9L84.1-24.9Q83.85-26.4 83.85-29.2L83.85-29.2 83.85-29.9Q83.85-30.4 83.9-30.7L83.9-30.7 83.9-31.45 83.9-31.9Q83.9-32.2 84.2-32.43 84.5-32.65 84.9-32.75L84.9-32.75Q85.4-32.9 86.4-32.9L86.4-32.9 90.2-32.9Q91.45-32.9 92.1-32.85L92.1-32.85 93.95-32.8 111.95-32.8Q113.9-32.8 114.5-32.75L114.5-32.75Q114.75-32.7 115.2-32.65 115.65-32.6 115.84-32.45L115.84-32.45Q116.2-32.3 116.27-32.08 116.34-31.85 116.34-31.4L116.34-31.4 116.34-23.15Q116.34-22.6 115.9-22.4L115.9-22.4Q115.59-22.3 115.09-22.3L115.09-22.3 113.5-22.3 111.85-22.3Q110.7-22.3 110.1-22.4L110.1-22.4 108.6-22.4Q108.15-22.4 108.1-22.2L108.1-22.2Q108.1-22.15 108.05-22.08 108-22 108-21.9L108-21.9 108-21.15 108-19.45Q108-18.7 107.95-18.3L107.95-18.3Q107.95-16.85 107.75-11.95L107.75-11.95 107.65-10.45Q107.55-8.35 107.45-7.4L107.45-7.4 107.45-2.65Q107.45-0.95 106.75-0.5L106.75-0.5Q106.1-0.25 105.85-0.2L105.85-0.2 104.6-0.15Q102.65-0.15 101.85-0.05L101.85-0.05 96.6 0Q95.6 0.05 93 0.05L93 0.05ZM125.09 0Q124.84 0 124.34-0.08 123.84-0.15 123.14-0.2L123.14-0.2 122.09-0.45Q121.84-0.5 121.72-0.58 121.59-0.65 121.64-0.7L121.64-0.7Q121.64-2 121.49-4.15L121.49-4.15Q121.49-4.9 121.44-5.48 121.39-6.05 121.34-6.45L121.34-6.45 121.24-8.6Q121.24-9.45 121.14-10.75L121.14-10.75 121.09-12.3Q121.09-14.2 121.04-15.25L121.04-15.25Q120.99-16.3 120.99-19.65L120.99-19.65Q120.99-22.8 121.04-26.15 121.09-29.5 121.34-32.5L121.34-32.5Q121.34-33.05 122.54-33.4L122.54-33.4Q123.29-33.5 125.04-33.5L125.04-33.5Q129.09-33.5 130.99-33.65L130.99-33.65Q136.89-33.75 139.89-33.75L139.89-33.75 142.09-33.75Q146.19-33.65 148.39-33.45L148.39-33.45Q149.19-33.45 149.54-31.55L149.54-31.55Q149.69-31.2 149.89-29.75L149.89-29.75Q150.04-29 150.29-27.9L150.29-27.9Q150.34-27.6 150.32-27.33 150.29-27.05 150.29-27L150.29-27Q150.24-26.5 149.74-26.5L149.74-26.5Q149.54-26.55 149.14-26.55L149.14-26.55Q147.04-26.55 143.99-26.2L143.99-26.2 141.34-26Q139.69-25.8 138.74-25.75L138.74-25.75Q138.59-25.75 138.34-25.15L138.34-25.15Q138.14-24.5 137.89-22.15L137.89-22.15 137.79-20.9Q137.79-20.25 137.94-20.08 138.09-19.9 138.59-19.9L138.59-19.9 143.04-19.9Q144.99-19.9 147.49-19.65L147.49-19.65 148.09-19.65Q148.74-19.5 148.89-19.15L148.89-19.15Q149.09-18.85 149.14-18.5L149.14-18.5 149.34-14.05 149.34-13.9Q149.34-13.05 147.54-12.9L147.54-12.9Q146.49-12.65 143.54-12.65L143.54-12.65Q140.99-12.65 140.24-12.7L140.24-12.7Q138.79-12.7 138.49-12.65L138.49-12.65Q137.94-12.5 137.79-12.08 137.64-11.65 137.64-10.65L137.64-10.65Q137.64-10 137.54-8.8L137.54-8.8Q137.49-8.2 137.49-6.9L137.49-6.9Q140.74-6.9 142.29-7L142.29-7Q143.99-7.15 147.09-7.15L147.09-7.15Q147.29-7.15 147.49-6.8L147.49-6.8Q147.74-6.3 148.29-4.55L148.29-4.55Q148.59-3.55 148.89-2.05L148.89-2.05Q148.99-1.7 148.99-1.3L148.99-1.3Q148.99-0.25 147.99-0.25L147.99-0.25Q146.69-0.25 144.49-0.15L144.49-0.15Q143.34-0.05 140.89-0.05L140.89-0.05Q135.64-0.05 132.99 0L132.99 0 125.09 0ZM185.79 1.2Q182.49 1.2 180.29 0.9L180.29 0.9Q177.44 0.5 175.14-0.55L175.14-0.55Q174.84-0.7 174.26-1.03 173.69-1.35 173.29-1.65L173.29-1.65Q171.64-3.05 170.59-4.8L170.59-4.8Q169.74-5.7 169.04-7.3L169.04-7.3Q167.69-10.8 167.69-15.65L167.69-15.65Q167.69-21.35 170.04-25.65L170.04-25.65Q172.09-29.75 175.51-32.08 178.94-34.4 183.29-34.7L183.29-34.7 183.89-34.75 184.54-34.75Q188.44-34.75 192.94-33.15L192.94-33.15Q193.34-32.95 194.69-32.35 196.04-31.75 197.19-31L197.19-31 196.29-24.5 193.34-25.25Q191.74-25.65 190.34-25.65L190.34-25.65Q187.54-25.65 186.14-23.55L186.14-23.55Q184.64-21.35 184.64-16.4L184.64-16.4Q184.64-14.8 184.79-14.15L184.79-14.15Q184.99-11 186.19-9.5L186.19-9.5Q187.34-8.2 188.94-8.2L188.94-8.2Q190.44-8.2 192.29-9.15L192.29-9.15Q193.89-9.9 195.79-11.2L195.79-11.2 196.29-3Q194.34-1.2 191.29 0.05L191.29 0.05Q188.39 1.2 185.79 1.2L185.79 1.2ZM229.19 1.7Q228.99 1.7 228.84 1.65L228.84 1.65Q228.09 1.2 227.59 0.65L227.59 0.65Q227.44 0.4 227.39 0.4L227.39 0.4Q227.34 0.3 227.24 0.3L227.24 0.3 227.14 0.25Q226.94 0.05 226.94 0.05L226.94 0.05 222.69-6.25Q222.39-6.9 221.84-7.65L221.84-7.65Q221.49-8 221.24-8.4L221.24-8.4Q221.04-8.7 220.84-8.7L220.84-8.7Q220.69-8.7 220.61-8.55 220.54-8.4 220.49-8.15L220.49-8.15Q220.34-6.8 220.34-4.5L220.34-4.5Q220.34-2.3 220.09-0.95L220.09-0.95Q219.94-0.3 219.64-0.3L219.64-0.3 219.34-0.3Q219.24-0.35 219.16-0.38 219.09-0.4 219.09-0.4L219.09-0.4Q217.34-0.25 213.84-0.05L213.84-0.05Q210.44 0.15 208.64 0.15L208.64 0.15Q208.14 0.15 207.84 0.05L207.84 0.05 206.74 0.05 205.84 0.05 205.39 0.05 203.59-0.55 203.44-0.95Q203.44-1 203.41-1.15 203.39-1.3 203.39-1.55L203.39-1.55Q203.39-1.85 203.29-2.65L203.29-2.65Q203.04-5.7 203.09-5.05L203.09-5.05Q202.99-6.35 202.74-9.55L202.74-9.55 202.59-11.4Q202.59-12.3 202.54-13 202.49-13.7 202.44-14.2L202.44-14.2 202.34-15.3Q202.19-17.35 202.19-19.15L202.19-19.15Q202.19-19.2 202.21-19.3 202.24-19.4 202.24-19.7L202.24-19.7Q202.34-20 202.34-20.65L202.34-20.65 202.39-21.55 202.44-22.15Q202.44-23.2 202.34-25.2L202.34-25.2Q202.14-26.45 202.14-28.4L202.14-28.4Q202.14-31.2 202.49-32.5L202.49-32.5Q202.94-34.3 203.99-34.3L203.99-34.3Q209.64-34.3 215.49-34.15L215.49-34.15Q216.79-34.15 219.39-34.05L219.39-34.05 221.34-34Q225.34-33.9 226.89-33.9L226.89-33.9Q233.34-33.6 236.64-30.65L236.64-30.65Q238.14-29.4 238.86-27.65 239.59-25.9 239.59-23.9L239.59-23.9Q239.59-21.6 238.74-19.65L238.74-19.65Q238.04-18.1 236.74-16.8L236.74-16.8Q235.49-15.55 233.89-14.8L233.89-14.8Q234.19-14.65 234.69-14.15L234.69-14.15Q234.89-13.9 235.39-13.5L235.39-13.5 236.09-13Q236.24-12.75 236.44-12.53 236.64-12.3 236.84-12.05L236.84-12.05 239.19-9.15Q240.79-7.1 241.24-6.15L241.24-6.15Q241.59-5.5 241.59-5.15L241.59-5.15Q241.59-4.65 241.19-4.25 240.79-3.85 239.99-3.25L239.99-3.25Q239.39-2.8 238.59-2.4L238.59-2.4Q237.84-2 237.44-1.65L237.44-1.65 235.59-0.65Q234.59-0.1 233.44 0.3L233.44 0.3Q233.39 0.3 233.31 0.35 233.24 0.4 233.09 0.45L233.09 0.45Q232.79 0.6 231.44 1L231.44 1Q231.19 1.15 230.59 1.25L230.59 1.25Q230.44 1.35 230.24 1.4 230.04 1.45 229.94 1.45L229.94 1.45 229.69 1.45Q229.64 1.7 229.49 1.7L229.49 1.7 229.34 1.7 229.19 1.7ZM220.24-15.95L220.99-15.95Q222.54-15.95 223.44-17.5L223.44-17.5Q224.29-18.9 224.39-20.7L224.39-20.7Q224.49-21.75 224.49-23.2L224.49-23.2 224.49-23.75Q224.49-24.9 224.09-26.15L224.09-26.15Q223.69-27.75 222.44-28.45L222.44-28.45Q221.89-28.9 220.99-28.9L220.99-28.9Q220.74-28.9 220.59-28.3L220.59-28.3Q220.14-27.2 220.09-24.8L220.09-24.8Q219.89-23.8 219.89-22.45L219.89-22.45 219.84-20.95Q219.74-18.05 219.74-16.15L219.74-16.15Q219.74-16.1 219.79-16.05 219.84-16 219.89-16L219.89-16 220.24-15.95ZM246.73 0.05Q246.08 0.05 245.83-0.95L245.83-0.95Q245.78-1.1 245.78-1.45L245.78-1.45Q245.78-1.95 245.98-2.95L245.98-2.95Q246.08-3.6 246.16-3.98 246.23-4.35 246.28-4.55L246.28-4.55Q247.78-11.6 249.23-16.95L249.23-16.95 252.73-32.75Q252.73-32.85 252.88-33.05 253.03-33.25 253.23-33.3L253.23-33.3 253.48-33.3Q253.48-33.25 253.63-33.25L253.63-33.25Q254.23-33.25 254.98-33.4L254.98-33.4Q255.73-33.55 256.33-33.55L256.33-33.55Q257.43-33.55 258.38-33.4L258.38-33.4Q258.83-33.4 259.38-33.35 259.93-33.3 260.53-33.3L260.53-33.3Q260.73-33.3 260.98-33.4L260.98-33.4 261.88-33.4 263.03-33.4 264.23-33.45Q264.58-33.5 265.08-33.5L265.08-33.5Q265.48-33.5 265.48-33.55L265.48-33.55 266.28-33.55 267.98-33.55 270.08-33.55Q272.88-33.55 273.78-33.45L273.78-33.45Q273.93-33.45 274.21-33.43 274.48-33.4 274.53-33.3L274.53-33.3Q274.88-33.3 275.23-33.35 275.58-33.4 275.88-33.4L275.88-33.4Q276.58-33.55 277.23-33.55L277.23-33.55Q277.53-33.55 277.83-33.4L277.83-33.4Q278.13-33.25 278.48-33.25L278.48-33.25 278.73-33.3 278.88-33.3Q279.03-33.2 279.21-33.02 279.38-32.85 279.38-32.75L279.38-32.75 282.88-16.95Q284.48-11.1 285.78-4.55L285.78-4.55Q285.78-4.25 285.98-3.9L285.98-3.9Q286.03-3.55 286.13-2.95 286.23-2.35 286.23-1.95L286.23-1.95Q286.28-1.75 286.28-1.4L286.28-1.4Q286.28-0.7 285.98-0.25L285.98-0.25Q285.78 0.05 285.38 0.05L285.38 0.05 284.73 0.05Q283.98 0.05 283.58 0L283.58 0 282.28 0 281.03 0 280.03 0Q279.63 0 279.63-0.05L279.63-0.05 276.48-0.05 276.48-0.15Q276.28-0.25 275.98-0.25L275.98-0.25Q275.98-0.25 275.96-0.23 275.93-0.2 275.88-0.15L275.88-0.15Q275.88-0.05 275.78-0.05L275.78-0.05 275.63-0.05 275.23-0.05Q274.98-0.15 274.23-0.15L274.23-0.15Q272.73-0.25 271.88-0.25L271.88-0.25Q271.58-0.7 271.26-2.05 270.93-3.4 270.58-5.05L270.58-5.05Q270.48-5.85 270.38-6.15L270.38-6.15Q269.33-5.95 267.63-5.95L267.63-5.95 266.08-5.95 264.63-5.95 264.28-4.35Q263.63-1.05 263.23-0.25L263.23-0.25Q263.03-0.25 262.73-0.15L262.73-0.15Q262.63-0.1 262.56-0.08 262.48-0.05 262.48-0.05L262.48-0.05 262.28-0.05Q261.98-0.05 261.83-0.15L261.83-0.15Q261.73-0.25 261.58-0.25L261.58-0.25 259.33-0.15 258.53-0.15 257.78-0.15Q257.58-0.05 257.28-0.05L257.28-0.05 257.08-0.05 252.48-0.05 252.03-0.05Q251.48 0 249.78 0L249.78 0 248.48 0Q248.08 0.05 247.33 0.05L247.33 0.05 246.73 0.05ZM269.83-12.2Q269.48-14.65 269.48-14.65L269.48-14.65Q269.33-15.35 268.98-17.3L268.98-17.3Q268.88-17.8 268.48-20L268.48-20Q268.08-22.4 268.08-22.4L268.08-22.4Q267.93-23.4 267.78-24.15L267.78-24.15 267.73-24.8Q267.58-25.05 267.58-25.25L267.58-25.25 267.53-25.55Q267.48-25.45 267.48-25.25L267.48-25.25Q267.48-25.05 267.38-25L267.38-25 267.38-24.8 267.28-24.15Q267.23-23.8 267.16-23.38 267.08-22.95 266.98-22.45L266.98-22.45 266.73-21.05Q266.18-17.9 266.08-17.4L266.08-17.4Q266.03-16.85 265.83-15.75L265.83-15.75Q265.73-15.4 265.63-14.7L265.63-14.7 265.23-12.4 267.78-12.4 268.13-12.5 268.23-12.5Q268.83-12.5 269.13-12.4L269.13-12.4Q269.33-12.4 269.51-12.33 269.68-12.25 269.83-12.2L269.83-12.2ZM294.13 0.55Q293.08 0.55 292.78-1.4L292.78-1.4Q292.63-2.25 292.63-2.95L292.63-2.95 292.63-4.05Q292.48-5.7 292.48-7.25L292.48-7.25Q292.28-11.85 292.13-13.75L292.13-13.75Q292.13-14.6 292.03-15.58 291.93-16.55 291.88-16.95L291.88-16.95 291.88-32.75Q291.88-33.2 292.23-33.3L292.23-33.3 292.53-33.3 292.68-33.25Q294.43-33.25 297.28-33.4L297.28-33.4Q301.08-33.5 303.63-33.5L303.63-33.5 304.13-33.5Q304.43-33.45 305.13-33.45L305.13-33.45 306.03-33.45 306.53-33.45Q308.03-33.45 308.88-33.4L308.88-33.4 314.03-33.4Q314.98-33.3 317.13-33.3L317.13-33.3Q317.53-33.3 317.73-33.25L317.73-33.25Q318.13-33.15 318.63-33.15L318.63-33.15Q318.83-33.15 319.03-33.3L319.03-33.3Q320.18-33.3 320.28-31.2L320.28-31.2Q320.38-30.5 320.38-30.15L320.38-30.15Q320.38-29.85 320.28-28.95L320.28-28.95Q320.23-28.15 320.23-26.4L320.23-26.4Q320.23-25.85 319.28-25.75L319.28-25.75Q319.03-25.7 318.43-25.7L318.43-25.7 317.73-25.7 315.48-25.7 313.98-25.65Q313.48-25.5 312.43-25.5L312.43-25.5Q311.38-25.5 311.23-25.55L311.23-25.55Q311.08-25.5 311.01-25.45 310.93-25.4 310.88-25.4L310.88-25.4Q310.88-25.3 310.83-25.2 310.78-25.1 310.78-24.9L310.78-24.9Q310.73-24.55 310.53-22.3L310.53-22.3Q310.48-21.65 310.48-20L310.48-20 310.43-19.9Q310.43-19.7 310.63-19.45L310.63-19.45 316.63-19.45Q317.23-19.45 317.51-19.3 317.78-19.15 317.93-18.75L317.93-18.75Q318.13-18.15 318.13-15.65L318.13-15.65 318.13-13.25 318.13-11.9Q318.03-11.45 317.86-11.3 317.68-11.15 317.38-11.15L317.38-11.15Q316.98-11.15 316.63-11.05L316.63-11.05 314.38-10.9 313.38-10.9Q312.63-10.9 312.38-10.8L312.38-10.8Q312.03-10.7 311.43-10.65L311.43-10.65 310.73-10.65Q309.93-10.65 309.63-10.45L309.63-10.45Q309.38-10.4 309.13-9.95L309.13-9.95Q309.13-5.4 309.03-3.75L309.03-3.75Q308.98-1.35 308.53-0.25L308.53-0.25Q307.63-0.25 305.93-0.15L305.93-0.15Q305.13-0.15 304.88-0.05L304.88-0.05 304.38-0.05 304.28-0.05Q304.08-0.05 303.98-0.1 303.88-0.15 303.78-0.15L303.78-0.15 303.63-0.2Q303.63-0.25 303.43-0.25L303.43-0.25Q303.38-0.25 303.26-0.2 303.13-0.15 303.03-0.05L303.03-0.05 298.88-0.05Q298.83 0 298.66 0.03 298.48 0.05 298.18 0.15L298.18 0.15 295.13 0.5 294.13 0.55ZM333.18 0.05Q332.48 0.05 332.13-0.9L332.13-0.9Q331.38-2.55 331.38-6.9L331.38-6.9Q331.38-11.1 331.53-16.55L331.53-16.55Q331.58-18.3 331.58-21.95L331.58-21.95 331.43-22.15 325.88-22.15Q325.23-22.15 324.85-22.88 324.48-23.6 324.28-24.9L324.28-24.9Q324.03-26.4 324.03-29.2L324.03-29.2 324.03-29.9Q324.03-30.4 324.08-30.7L324.08-30.7 324.08-31.45 324.08-31.9Q324.08-32.2 324.38-32.43 324.68-32.65 325.08-32.75L325.08-32.75Q325.58-32.9 326.58-32.9L326.58-32.9 330.38-32.9Q331.63-32.9 332.28-32.85L332.28-32.85 334.13-32.8 352.13-32.8Q354.08-32.8 354.68-32.75L354.68-32.75Q354.93-32.7 355.38-32.65 355.83-32.6 356.03-32.45L356.03-32.45Q356.38-32.3 356.45-32.08 356.53-31.85 356.53-31.4L356.53-31.4 356.53-23.15Q356.53-22.6 356.08-22.4L356.08-22.4Q355.78-22.3 355.28-22.3L355.28-22.3 353.68-22.3 352.03-22.3Q350.88-22.3 350.28-22.4L350.28-22.4 348.78-22.4Q348.33-22.4 348.28-22.2L348.28-22.2Q348.28-22.15 348.23-22.08 348.18-22 348.18-21.9L348.18-21.9 348.18-21.15 348.18-19.45Q348.18-18.7 348.13-18.3L348.13-18.3Q348.13-16.85 347.93-11.95L347.93-11.95 347.83-10.45Q347.73-8.35 347.63-7.4L347.63-7.4 347.63-2.65Q347.63-0.95 346.93-0.5L346.93-0.5Q346.28-0.25 346.03-0.2L346.03-0.2 344.78-0.15Q342.83-0.15 342.03-0.05L342.03-0.05 336.78 0Q335.78 0.05 333.18 0.05L333.18 0.05Z" opacity="1" transform="matrix(1,0,0,1,0,0)" fill="#ffffff" class="wordmark-text-0" data-fill-palette-color="primary" id="text-0"></path></svg></g></svg></g></svg></g></svg></g><g><svg viewBox="0 0 108.38025167185816 108.38025167185816" height="108.38025167185816" width="108.38025167185816"><g><svg></svg></g><g id="icon-0"><svg viewBox="0 0 108.38025167185816 108.38025167185816" height="108.38025167185816" width="108.38025167185816"><g><path d="M0 54.19c0-29.928 24.262-54.19 54.19-54.19 29.928 0 54.19 24.262 54.19 54.19 0 29.928-24.262 54.19-54.19 54.19-29.928 0-54.19-24.262-54.19-54.19zM54.19 104.366c27.711 0 50.176-22.465 50.176-50.176 0-27.711-22.465-50.176-50.176-50.176-27.711 0-50.176 22.465-50.176 50.176 0 27.711 22.465 50.176 50.176 50.176z" data-fill-palette-color="accent" fill="#ffffff" stroke="transparent"></path></g><g transform="matrix(1,0,0,1,22.83039975516896,35.063842897301036)"><svg viewBox="0 0 62.719452161520245 38.25256587725609" height="38.25256587725609" width="62.719452161520245"><g><svg xmlns="http://www.w3.org/2000/svg" xmlns:xlink="http://www.w3.org/1999/xlink" version="1.1" x="0" y="0" viewBox="7.383999824523926 22.665000915527344 82.26599884033203 50.17399597167969" enable-background="new 0 0 96 96" xml:space="preserve" height="38.25256587725609" width="62.719452161520245" class="icon-s-0" data-fill-palette-color="accent" id="s-0"><polygon points="40.886,48.171 40.886,48.921 40.886,71.015 80.134,71.015 40.886,34.009 " fill="#ffffff" data-fill-palette-color="accent"></polygon><polygon points="57.337,22.665 41.365,32.399 57.337,47.458 " fill="#ffffff" data-fill-palette-color="accent"></polygon><polygon points="7.384,55.799 21.194,55.799 13.84,49.209 " fill="#ffffff" data-fill-palette-color="accent"></polygon><polygon points="39.386,70.085 39.386,48.921 15.768,48.921 " fill="#ffffff" data-fill-palette-color="accent"></polygon><polygon points="89.65,72.839 89.65,63.251 85.468,68.586 " fill="#ffffff" data-fill-palette-color="accent"></polygon><polygon points="88.859,61.829 72.578,61.829 81.939,70.655 " fill="#ffffff" data-fill-palette-color="accent"></polygon></svg></g></svg></g></svg></g></svg></g></svg></g><defs></defs></svg><rect width="395.52" height="81.66353954221096" fill="none" stroke="none" visibility="hidden"></rect></g></svg></g></svg>